<?xml version="1.0" encoding="UTF-8" standalone="no"?>
<!-- Created with Inkscape (http://www.inkscape.org/) -->

<svg
   version="1.1"
   viewBox="0 0 256 256"
   id="svg14"
   sodipodi:docname="clean.svg"
   xml:space="preserve"
   inkscape:version="1.3.2 (091e20e, 2023-11-25, custom)"
   xmlns:inkscape="http://www.inkscape.org/namespaces/inkscape"
   xmlns:sodipodi="http://sodipodi.sourceforge.net/DTD/sodipodi-0.dtd"
   xmlns="http://www.w3.org/2000/svg"
   xmlns:svg="http://www.w3.org/2000/svg"><sodipodi:namedview
     id="namedview14"
     pagecolor="#ffffff"
     bordercolor="#000000"
     borderopacity="0.25"
     inkscape:showpageshadow="2"
     inkscape:pageopacity="0.0"
     inkscape:pagecheckerboard="0"
     inkscape:deskcolor="#d1d1d1"
     inkscape:zoom="3.3940969"
     inkscape:cx="139.65423"
     inkscape:cy="129.48953"
     inkscape:window-width="1920"
     inkscape:window-height="991"
     inkscape:window-x="-9"
     inkscape:window-y="-9"
     inkscape:window-maximized="1"
     inkscape:current-layer="svg14"
     showgrid="false" /><defs
     id="defs2"><linearGradient
       id="linearGradient877"
       x1="106.02"
       x2="169.27"
       y1="60.754"
       y2="214.99"
       gradientTransform="matrix(1.3289 .073951 -.073951 1.3289 -48.221 -92.269)"
       gradientUnits="userSpaceOnUse"><stop
         stop-color="#ffd5d5"
         offset="0"
         id="stop1" /><stop
         stop-color="#faa"
         offset="1"
         id="stop2" /></linearGradient><radialGradient
       id="radialGradient4215"
       cx="130.89"
       cy="135.36"
       r="74.165001"
       gradientTransform="matrix(0.75762,0,0,0.7456,8.9332,26.214)"
       gradientUnits="userSpaceOnUse"><stop
         stop-color="#fff6d4"
         offset="0"
         id="stop1-2" /><stop
         stop-color="#ffefb4"
         stop-opacity=".773"
         offset=".455"
         id="stop2-2" /><stop
         stop-color="#ffdb47"
         stop-opacity="0"
         offset="1"
         id="stop3" /></radialGradient><radialGradient
       id="radialGradient4215-2"
       cx="130.89"
       cy="135.36"
       r="74.165001"
       gradientTransform="matrix(0.75762,0,0,0.7456,8.9332,26.214)"
       gradientUnits="userSpaceOnUse"><stop
         stop-color="#fff6d4"
         offset="0"
         id="stop1-9" /><stop
         stop-color="#ffefb4"
         stop-opacity=".773"
         offset=".455"
         id="stop2-8" /><stop
         stop-color="#ffdb47"
         stop-opacity="0"
         offset="1"
         id="stop3-0" /></radialGradient></defs><g
     id="Layer_2"
     data-name="Layer 2"
     transform="matrix(5.1034389,0,0.01551285,5.3809263,4.6703932,-1.141685)"
     style="display:inline;fill:#66ffed;fill-opacity:1"><g
       id="Layer_4"
       data-name="Layer 4"
       style="fill:#66ffed;fill-opacity:1"><g
         id="g8"
         style="fill:#66ffed;fill-opacity:1"><path
           d="M 37,28.5 V 14 a 2,2 0 0 0 -4,0 v 14.5 a 2,2 0 0 0 4,0 z"
           id="path1"
           style="fill:#66ffed;fill-opacity:1" /><path
           d="M 30.1,39.2 A 8.3,8.3 0 0 1 25,41 h -1.8 c -4.5,0 -8.7,-3.4 -9,-7.3 L 13,18.8 A 2,2 0 0 0 10.8,17 2,2 0 0 0 9,19.2 L 10.2,34 c 0.5,6 6.5,11 13,11 H 25 a 12.2,12.2 0 0 0 7.7,-2.8 2,2 0 0 0 0.2,-2.8 1.9,1.9 0 0 0 -2.8,-0.2 z"
           id="path2"
           style="fill:#66ffed;fill-opacity:1" /><path
           d="m 29,24 a 2,2 0 0 0 2,-2 V 8 a 2,2 0 0 0 -4,0 v 14 a 2,2 0 0 0 2,2 z"
           id="path3"
           style="fill:#66ffed;fill-opacity:1" /><path
           d="m 23,24 a 2,2 0 0 0 2,-2 V 5 a 2,2 0 0 0 -4,0 v 17 a 2,2 0 0 0 2,2 z"
           id="path4"
           style="fill:#66ffed;fill-opacity:1" /><path
           d="m 17,24 a 2,2 0 0 0 2,-2 V 8 a 2,2 0 0 0 -4,0 v 14 a 2,2 0 0 0 2,2 z"
           id="path5"
           style="fill:#66ffed;fill-opacity:1" /><path
           d="m 16.8,29 a 1,1 0 0 0 0,2 l 1.8,0.3 0.4,1.9 a 1,1 0 0 0 2,0 l 0.4,-1.9 1.8,-0.3 a 1,1 0 0 0 0,-2 L 21.4,28.7 21,26.8 a 1,1 0 0 0 -2,0 l -0.4,1.9 z"
           id="path6-4"
           style="fill:#66ffed;fill-opacity:1" /><path
           d="M 45.2,34.5 41.8,33.8 41,30.3 a 1,1 0 0 0 -2,0 l -0.8,3.5 -3.4,0.7 a 1,1 0 0 0 0,2 l 3.4,0.7 0.8,3.5 a 1,1 0 0 0 2,0 l 0.8,-3.5 3.4,-0.7 a 1,1 0 0 0 0,-2 z"
           id="path7-0"
           style="fill:#66ffed;fill-opacity:1" /><path
           d="M 12,8 A 1,1 0 0 0 11.2,7 L 8.6,6.5 8,3.8 A 1,1 0 0 0 7,3 1,1 0 0 0 6,3.8 L 5.4,6.5 2.8,7 A 1,1 0 0 0 2,8 1,1 0 0 0 2.8,9 L 5.4,9.5 6,12.2 A 1,1 0 0 0 7,13 1,1 0 0 0 8,12.2 L 8.6,9.5 11.2,9 A 1,1 0 0 0 12,8 Z"
           id="path8-6"
           style="fill:#66ffed;fill-opacity:1" /></g></g></g></svg>
