<?xml version="1.0" encoding="UTF-8"?>
<svg cursor="default" version="1.1" viewBox="0 0 256 256" xml:space="preserve" xmlns="http://www.w3.org/2000/svg" xmlns:xlink="http://www.w3.org/1999/xlink"><defs><radialGradient id="radialGradient22" cx="85.06" cy="160.02" r="31.867" gradientTransform="matrix(1.643 0 0 1.7229 -54.697 -115.73)" gradientUnits="userSpaceOnUse"><stop stop-color="#ff8080" stop-opacity="0" offset="0"/><stop stop-color="#ff8080" offset="1"/></radialGradient></defs><g fill="#fca" fill-rule="evenodd" stroke="#000" stroke-width=".5"><path d="m62.021 132.26 2.3751-2.3904c-0.67792-0.91775-25.951-22.742-37.547-45.47-5.6257-11.026-3.2122-34.743 3.7408-44.983 11.241-16.553 38.606-25.667 54.297-25.803l-4.9283-0.5212c-10.428-2.1884-41.834 8.654-52.761 24.702-7.2169 10.6-7.7467 34.441-3.0558 46.377 8.0806 20.56 36.94 47.441 37.879 48.089z"/><path d="m84.887 13.617c12.688 2.3699 11.788 15.453 10.317 24.178-5.4758 32.487-52.284 44.233-64.628 74.779-9.0403 22.371 20.951 50.323 34.825 58.3l-0.06263 2.7943c-20.517-9.251-47.78-39.813-38.713-62.602 12.1-30.411 58.876-41.704 64.623-73.925 1.5585-8.7355 1.8632-19.385-11.291-24.046zm7.9942 166.81-0.55435-2.1604c1.0436-0.40217 38.071 8.6381 52.141 22.55 11.485 11.357 24.32 18.145 36.626 19.475 19.143 2.0693 55.32-44.682 65.624-56.517l-2.808 4.0828c-9.4205 15.089-40.253 57.873-62.451 56.066-12.783-1.0403-29.337-12.008-38.577-20.901-15.569-14.984-48.928-22.911-50-22.595z"/><path d="m246.72 163.78c6.4479-11.183-4.0795-19.002-11.666-23.557-28.246-16.957-34.203 30.554-65.142 25.275-23.786-4.0582-47.256-10.664-47.919-11.332l-1.6279 2.3074c0.67413 0.65798 24.03 8.4281 48.124 13.007 31.42 5.9707 36.27-42.404 64.49-25.827 7.6509 4.4938 15.941 11.185 10.933 24.211z"/></g><path d="m47.761 189.39s3.5802 12.24 5.8076 15.548c2.2274 3.3076 19.385 12.554 25.544 13.05 6.1593 0.49576 21.883-2.5998 23.294-4.235 1.4113-1.6352 11.844-11.971 11.844-11.971l1.5891 1.9114s18.621-14.373 19.596-16.2c0.97507-1.8266 2.0632-7.0722 3.3469-8.4166 1.2837-1.3443 12.237-14.053 13.095-16.799 0.85791-2.7452-2.3336-26.692-3.5681-28.621-1.2344-1.9292-19.494-17.227-19.494-17.227l-1.4856 2.99-20.84-1.5152s-3.991-8.6887-4.0444-9.7527c-0.0534-1.064 1.3507-4.2632 1.3507-4.2632s-8.8204-0.0556-10.711-0.88526c-1.8904-0.82967-7.6789-4.2372-8.6152-4.4747-0.93633-0.2375-5.8764 1.9301-9.3131 1.4624-3.4367-0.46771-18.265-2.6399-21.404-1.4159-3.1386 1.224-14.922 15.823-16.142 17.022-1.2199 1.1989-5.6243 4.1219-6.7909 6.3848-1.1665 2.2629-3.9623 21.674-3.7562 24.366 0.20605 2.6918 5.9157 27.223 5.9157 27.223l5.3481-1.1214 5.5633 17.356z" fill="#faa" fill-opacity=".75" stroke="#000" stroke-linecap="round" stroke-linejoin="round" stroke-width=".5"/><g fill="none" stroke="#000" stroke-linecap="round" stroke-linejoin="round" stroke-width=".5"><path d="m38.31 172.36s12.742-3.6054 14.858-4.516c2.1165-0.91061 9.5541-5.0044 9.5541-5.0044"/><path d="m47.646 189.09 25.602-3.8478"/><path d="m71.006 188.09s-7.125 0.42832-9.1128 1.2035c-1.9878 0.7752-3.805 3.5329-3.3881 4.7565 0.41688 1.2235 6.4246-0.21542 7.3892-0.83265 0.96459-0.61724 1.5212-2.2807 2.2038-2.8482s1.8565-1.2664 1.8565-1.2664"/><path d="m114.55 201.78s-7.7503-9.1652-9.5738-11.437c-1.8235-2.2719-5.7796-11.979-5.7796-11.979"/><path d="m106.37 117.86s3.2534 5.72 2.777 6.2467c-0.47642 0.52671-8.016-7.4422-8.016-7.4422s-8.8972 4.0664-9.9529 5.0746c-1.0557 1.0083-5.6564 9.5355-5.6564 9.5355"/><path d="m127.32 119.33s-2.4472 3.3408-3.5354 4.7027c-1.0882 1.3619-7.4599 6.6593-8.503 7.9184-1.0431 1.2591-3.2343 5.6932-3.2343 5.6932"/><path d="m34.614 120.71s6.9973 4.1746 8.121 5.5262c1.1237 1.3516 5.719 8.7642 7.2288 9.7947 1.5098 1.0305 3.0197 2.061 3.0197 2.061"/><path d="m55.258 100.21s2.4585 4.3483 3.0297 5.813c0.57119 1.4647-0.18006 6.3378 0.07728 7.9249 0.25734 1.5871 6.2911 9.1778 6.2911 9.1778"/><path d="m83.942 99.681s0.02804 3.5687-0.45578 4.9505c-0.48383 1.3819-6.8955 7.8881-8.1065 9.8092-1.211 1.9212-4.9389 11.813-4.9389 11.813"/><path d="m102.18 106.99s-12.82 10.243-14.126 11.837c-1.3067 1.5944-4.7707 9.0924-4.7707 9.0924"/><path d="m109.25 124.16s-2.1439 2.3702-2.8334 3.6618c-0.68948 1.2916-1.496 9.2767-1.496 9.2767"/><path d="m118.06 167.03s8.0482 7.3476 10.219 9.5142c2.1708 2.1667 4.4079 9.9122 5.0712 10.377 0.66327 0.46451 1.8104-0.76631 1.8104-0.76631"/><path d="m150.03 162.29s-1.6926 1.3419-2.4901 1.4825c-0.79748 0.14054-2.3502-2.7483-3.6292-3.187-1.279-0.4387-17.099-4.0705-17.099-4.0705"/></g><path d="m74.032 193.84s-14.41-26.442-18.802-41.724c-4.3927-15.282 3.6526-28.229 16.683-28.925 10.373-0.55358 20.648 7.8531 19.182 19.518 3.9626-6.4847 16.692-11.227 25.73-4.4898 13.433 10.013 8.98 27.354-3.7867 35.105-12.767 7.751-39.006 20.515-39.006 20.515z" fill="#faa" stroke="#000" stroke-linecap="round" stroke-linejoin="round" stroke-width=".5"/><path d="m72.105 126.81c-5.3581 0.28596-9.4197 2.9408-11.943 7.2148-2.5237 4.274-3.404 10.272-1.4453 17.086 3.693 12.848 14.485 33.309 16.91 37.869 4.6599-2.2868 24.479-12.051 35.529-18.76 5.5171-3.3496 9.1715-8.7909 10.016-14.166 0.8441-5.3751-0.75806-10.638-6.5156-14.93-3.5375-2.6368-7.78-3.0474-11.752-2.0938-3.972 0.95359-7.4277 3.4651-8.7129 5.5684a3.6288 3.6288 0 0 1-6.6953-2.3457c1.1771-9.3696-7.0974-15.886-15.391-15.443z" fill="url(#radialGradient22)" stroke-linecap="round" stroke-linejoin="round" stroke-width=".5"/></svg>
