<?xml version="1.0" encoding="UTF-8" standalone="no"?>
<svg
   cursor="default"
   version="1.1"
   viewBox="0 0 256 256"
   id="svg95"
   sodipodi:docname="ring_finisher.svg"
   xml:space="preserve"
   inkscape:version="1.3.2 (091e20e, 2023-11-25, custom)"
   xmlns:inkscape="http://www.inkscape.org/namespaces/inkscape"
   xmlns:sodipodi="http://sodipodi.sourceforge.net/DTD/sodipodi-0.dtd"
   xmlns:xlink="http://www.w3.org/1999/xlink"
   xmlns="http://www.w3.org/2000/svg"
   xmlns:svg="http://www.w3.org/2000/svg"><sodipodi:namedview
     id="namedview95"
     pagecolor="#ffffff"
     bordercolor="#000000"
     borderopacity="0.25"
     inkscape:showpageshadow="2"
     inkscape:pageopacity="0.0"
     inkscape:pagecheckerboard="0"
     inkscape:deskcolor="#d1d1d1"
     inkscape:zoom="4"
     inkscape:cx="104"
     inkscape:cy="120.625"
     inkscape:window-width="1920"
     inkscape:window-height="991"
     inkscape:window-x="-9"
     inkscape:window-y="-9"
     inkscape:window-maximized="1"
     inkscape:current-layer="layer1"
     showgrid="false" /><defs
     id="defs6"><linearGradient
       id="linearGradient1"
       inkscape:collect="always"><stop
         style="stop-color:#c4c4c4;stop-opacity:1;"
         offset="0.79828972"
         id="stop7" /><stop
         style="stop-color:#c4c4c4;stop-opacity:0;"
         offset="1"
         id="stop8" /></linearGradient><linearGradient
       id="linearGradient1131"
       x1="147.53"
       x2="162.44"
       y1="195.25"
       y2="124.47"
       gradientTransform="matrix(1.0993 .040024 -.040024 1.0993 -14.337 -6.483)"
       gradientUnits="userSpaceOnUse"><stop
         stop-color="#f55"
         offset="0"
         id="stop1" /><stop
         stop-color="#ff8080"
         offset="1"
         id="stop2" /></linearGradient><linearGradient
       id="linearGradient1139"
       x1="164.07"
       x2="166.51"
       y1="114.31"
       y2="104"
       gradientUnits="userSpaceOnUse"><stop
         stop-color="#f55"
         offset="0"
         id="stop3" /><stop
         stop-color="#ff8080"
         offset="1"
         id="stop4" /></linearGradient><linearGradient
       id="linearGradient1147"
       x1="36.113"
       x2="30.78"
       y1="135.05"
       y2="119.59"
       gradientUnits="userSpaceOnUse"><stop
         stop-color="#ff2a2a"
         offset="0"
         id="stop5" /><stop
         stop-color="#ff8080"
         offset="1"
         id="stop6" /></linearGradient><radialGradient
       inkscape:collect="always"
       xlink:href="#linearGradient1"
       id="radialGradient8"
       cx="79.713955"
       cy="98.816407"
       fx="79.713955"
       fy="98.816407"
       r="33.577825"
       gradientTransform="matrix(1,0,0,1.1767431,0,-17.465114)"
       gradientUnits="userSpaceOnUse" /></defs><g
     id="g30"><g
       stroke="#000"
       stroke-linecap="round"
       stroke-linejoin="round"
       stroke-width=".825"
       id="g13"><path
         d="m49.023 146.11 29.449 20.174s5.8365 3.6668 15.085 3.0821c26.686-1.6872 44.347-26.664 46.854-49.163 2.4786-22.24-17.713-61.329-17.713-61.329z"
         fill="#ff8080"
         id="path6" /><path
         d="m133.71 79.802c-0.85127-8.0906-3.8549-16.26-7.4678-24.451-2.927 1.7342-14.985 0.74791-15.094 2.5847 3.8246 3.5485 9.725 2.9349 12.546 1.8001l7.8854 21.182z"
         fill="#faa"
         id="path7" /><path
         d="m44.592 104.91 1.9208 22.934c-9.2664 4.625-12.863 9.4564-19.123 14.191l-13.591-1.0802c6.354-19.401 19.112-26.705 30.793-36.044z"
         fill="url(#linearGradient1147)"
         id="path8" /><path
         d="m33.394 146c5.4467 20.51 46.14 38.943 107.82 39.447 31.536 0.25774 87.689-7.4414 88.382-33.498 35.476 37.591-55.401 53.497-92.733 50.503-107.21-8.596-131.08-46.921-103.47-56.453z"
         fill="#faa"
         id="path9" /><path
         d="m134.21 90.864 5.0374 13.318c35.411 11.588 57.68 22.697 86.52 34.045 7.559-26.649-90.29-53.786-91.558-47.363z"
         fill="url(#linearGradient1139)"
         id="path10" /><path
         d="m49.308 135.24c0.63436-3.5285-27.283-3.4335-35.51 5.7236 9.4674-18.469 23.618-28.192 34.876-35.316-2.4006-7.5662-5.5898-8.8994-9.3074-3.7284-1.5814 2.1996-29.087 23.262-27.174 48.387 3.1912 41.903 95.959 53.09 133.71 53.823 68.075 1.3221 103.64-22.022 104.23-46.503 0.67798-28.19-45.282-56.992-119.46-80.468 1.6385 3.0944 3.4641 9.1807 3.5306 13.71 27.144 7.4757 57.694 20.385 86.61 35.69-17.3-5.5721-57.024-7.4189-88.37 0.3645-4.9713 4.6295-6.9779 9.965-8.0279 15.528l3.0512 6.3797c54.701-17.461 104.06-0.94512 103.47 15.409-0.94346 26.236-52.27 37.085-82.369 36.403-74.322-1.6835-117.57-27.004-117.09-43.068 0.22336-7.3519 25.261-9.2294 25.261-9.2294z"
         fill="url(#linearGradient1131)"
         id="path11" /><path
         d="m45.57 142.4 5.4269 1.6751s18.496 14.059 28.807 11.708c25.072-5.7163 46.614-32.2 47.805-57.888 0.64434-13.9-9.0617-32.01-13.275-37.902 1.8306 1.0393 3.9521 1.4097 8.4142 0.19546 3.5629 7.9393 10.965 19.615 9.6857 38.516-1.2901 19.065-21.516 60.215-53.288 60.643-18.74 0.25251-32.544-15.65-33.577-16.947z"
         fill="#faa"
         id="path12" /><path
         d="m45.028 66.274 9.5727 13.781 14.298-13.509-9.967-13.199z"
         fill="#faa"
         id="path13" /></g><path
       d="m39.521 102.02c2.0867-24.608 28.621-57.279 53.317-57.103 22.546 0.16046 36.518 27.17 36.618 49.716 0.12082 27.269-24.617 63.9-51.856 62.613-23.655-1.1177-40.976-21.048-38.078-55.225z"
       fill="#ffe6d5"
       id="path14" /><g
       stroke="#000"
       stroke-linecap="round"
       stroke-linejoin="round"
       stroke-width=".275"
       id="g29"><path
         d="m77.803 157.27 9.3731-24.98 11.521 19.007c-4.0782 2.6958-12.217 6.0686-20.894 5.9737z"
         fill="#ffb380"
         id="path15" /><path
         d="m87.176 132.29 5.5838-22.184 16.288-4.6308z"
         fill="#fca"
         id="path16" /><path
         d="m109.05 105.47-8.021-17.456-8.2667 22.087z"
         fill="#ffb380"
         id="path17" /><path
         d="m129.58 93.126-18.042-19.206-10.513 14.095 8.021 17.456z"
         fill="#fca"
         id="path18" /><path
         d="m129.58 93.126c-0.0645 10.903-3.3496 27.108-14.439 41.602l-6.0944-29.258z"
         fill="#ffe6d5"
         id="path19" /><path
         d="m115.14 134.73-17.965-14.765 11.871-14.493z"
         fill="#fca"
         id="path20" /><path
         d="m115.14 134.73-27.966-2.443 10.001-12.322z"
         fill="#ffb380"
         id="path21" /><path
         d="m87.176 132.29 11.521 19.007c10.354-7.2696 11.854-10.853 16.445-16.564z"
         fill="#fca"
         id="path22" /><path
         d="m111.54 73.92 12.797-3.0415c3.9358 7.5204 4.1819 14.832 5.2446 22.248z"
         fill="#ffb380"
         id="path23" /><path
         d="m111.54 73.92 5.9629-16.201c3.5492 4.358 4.8054 8.8564 6.8342 13.159z"
         fill="#f95"
         id="path24" /><path
         d="m111.54 73.92-16.617-19.112 6.1043 33.207z"
         fill="#ffb380"
         id="path25" /><path
         d="m111.54 73.92 5.9629-16.201c-3.6777-4.1035-8.0612-7.1222-12.626-9.8625l0.0778 18.361z"
         fill="#ff7f2a"
         id="path26" /><path
         d="m104.95 66.217-0.0778-18.361-9.9544 6.9509z"
         fill="#f95"
         id="path27" /><path
         d="m94.923 54.808-6.978-9.2091c5.8555-1.2636 12.031 0.19948 16.932 2.2583z"
         fill="#ff7f2a"
         id="path28" /><path
         d="m79.746 61.718-8.9103-9.4288c5.0793-2.4567 8.1069-5.6587 17.109-6.6904l6.978 9.2091z"
         fill="#ffb380"
         id="path29" /></g></g><g
     fill="#ffe6d5"
     stroke="#000"
     stroke-linecap="round"
     stroke-linejoin="round"
     stroke-width=".275"
     id="g32"><path
       d="m79.746 61.718 17.555 6.2777-2.3778-13.188z"
       id="path30" /><path
       d="m97.3 67.995-4.5403 42.106 8.2667-22.087z"
       id="path31" /><path
       d="m92.76 110.1-20.258 11.203 14.675 10.982z"
       id="path32" /></g><g
     stroke="#000"
     stroke-linecap="round"
     stroke-linejoin="round"
     stroke-width=".275"
     id="g40"><path
       d="m72.502 121.3-10.001 12.322 15.302 23.64 9.3731-24.98z"
       fill="#fca"
       id="path33" /><path
       d="m62.501 133.63-2.3701 18.554c5.8437 2.9879 11.726 4.9053 17.672 5.0863z"
       fill="#ffe6d5"
       id="path34" /><path
       d="m49.042 142.54 13.459-8.9128-2.3701 18.554c-4.9689-2.3498-8.8883-6.643-11.089-9.6407z"
       fill="#f95"
       id="path35" /><path
       d="m62.501 133.63-4.9368-20.179 14.938 7.8572z"
       fill="#ffe6d5"
       id="path36" /><path
       d="m57.564 113.45-10.369-2.1685 20.536-43.431z"
       fill="#ffe6d5"
       id="path37" /><path
       d="m79.746 61.718-8.9103-9.4288-3.1037 15.558z"
       fill="#fca"
       id="path38" /><path
       d="m47.196 111.28 1.8468 31.261 13.459-8.9128-4.9368-20.179z"
       fill="#ffb380"
       id="path39" /><path
       d="m47.196 111.28-7.9458-3.1251c-0.68826 12.995 3.2655 27.819 9.7926 34.386z"
       fill="#f95"
       id="path40" /></g><path
     d="m46.363 112.01c0.06599 1.1091-0.09933 4.458-0.03334 5.5671 0.23514 3.9519 1.3039 15.786 1.539 19.738-0.23514-3.9519-0.57727-15.829-0.81242-19.781-0.06599-1.1091-0.62728-4.4148-0.69327-5.5239z"
     fill="#fff"
     id="path41" /><g
     stroke="#000"
     stroke-linecap="round"
     stroke-linejoin="round"
     id="g49"><g
       stroke-width=".275"
       id="g48"><path
         d="m47.196 111.28-5.3819-20.046c-2.0447 5.5971-1.9241 11.273-2.5639 16.921z"
         fill="#ff7f2a"
         id="path42" /><path
         d="m47.196 111.28 8.0904-17.242-13.472-2.8039z"
         fill="#f95"
         id="path43" /><path
         d="m55.286 94.035-4.7257-13.679 17.172-12.509z"
         fill="#fca"
         id="path44" /><path
         d="m50.56 80.356-8.7465 10.875 13.472 2.8039z"
         fill="#ffb380"
         id="path45" /><path
         d="m41.814 91.232c2.5382-6.872 5.353-13.634 10.601-20.808l-1.8541 9.9323z"
         fill="#ff7f2a"
         id="path46" /><path
         d="m50.56 80.356 17.172-12.509-10.645-2.7756-4.6724 5.3522z"
         fill="#f95"
         id="path47" /><path
         d="m67.732 67.847 3.1037-15.558c-5.8925 4.005-10.511 8.259-13.749 12.783z"
         fill="#ff7f2a"
         id="path48" /></g><path
       d="m107.06 143.61 12.26 15.819c10.15 2.3783 13.507-10.397 11.635-12.114l-10.175-19.773c1.3736 4.8235-7.9158 16.66-13.719 16.067z"
       fill="#faa"
       stroke-width=".825"
       id="path49" /></g><path
     d="m61.379 135.82c-0.03612 0.29239-0.41495 1.1362-0.45107 1.4285-0.33447 2.7076-1.0674 10.864-1.4019 13.571 0.33447-2.7076 1.6083-10.797 1.9428-13.505 0.03612-0.29239-0.126-1.203-0.08988-1.4954z"
     fill="#fff"
     id="path50" /><path
     d="m39.521 102.02c2.0867-24.608 28.621-57.279 53.317-57.103 22.546 0.16046 36.518 27.17 36.618 49.716 0.12082 27.269-24.617 63.9-51.856 62.613-23.655-1.1177-40.976-21.048-38.078-55.225z"
     fill="none"
     stroke="#000"
     stroke-linecap="round"
     stroke-linejoin="round"
     stroke-width=".825"
     id="path51" /><path
     d="m35.978 136.54c-1.1325 3.1815 1.9168 7.7727 6.5551 12.627 7.6462 5.1498 18.13 9.8897 27.821 14.744l2.2373-2.0081-22.752-14.539c5.3198-12.18-9.0695-16.658-13.861-10.824z"
     fill="#faa"
     stroke="#000"
     stroke-linecap="round"
     stroke-linejoin="round"
     stroke-width=".825"
     id="path52" /><path
     d="m65.9 68.181c-0.26276-0.06033-0.99426-0.48865-1.257-0.54899-1.6212-0.37225-6.5416-1.2417-8.1628-1.6139 1.6212 0.37225 6.4281 1.7363 8.0493 2.1086 0.26276 0.06033 1.1078-6e-3 1.3706 0.05435z"
     fill="#fff"
     id="path53" /><path
     d="m45.028 66.274c15.851 11.618 18.48-9.7612 13.903-12.926-3.0761-3.8339-18.31 8.1481-13.903 12.926z"
     fill="#ffd5d5"
     stroke="#000"
     stroke-linecap="round"
     stroke-linejoin="round"
     stroke-width=".825"
     id="path54" /><path
     d="m42.533 149.17c17.891-11.354-1.4335-19.547-6.5551-12.627-1.1739-0.10615-0.27848 8.2074 6.5551 12.627z"
     fill="#ffd5d5"
     stroke="#000"
     stroke-linecap="round"
     stroke-linejoin="round"
     stroke-width=".825"
     id="path55" /><g
     fill="#fff"
     id="g58"><path
       d="m113.02 129.42 0.5383-0.11282c-0.9172-4.3761-4.2071-17.392-5.1243-21.768 0.9172 4.3761 3.1305 17.617 4.0477 21.993l0.5383-0.11282z"
       id="path56" /><path
       d="m111.82 133.49s0.35582-0.4194 0.35582-0.4194c-2.9177-2.4754-12.027-9.4823-14.944-11.958 2.9177 2.4754 11.315 10.321 14.233 12.796 0 0 0.35582-0.4194 0.35582-0.4194z"
       id="path57" /><path
       d="m111.89 135.71 0.06-0.54672c-4.6778-0.5132-18.771-1.5061-23.449-2.0193 4.6778 0.5132 18.651 2.5995 23.329 3.1127l0.06-0.54672z"
       id="path58" /></g><path
     d="m107.06 143.61c9.6424 2.1192 17.084-9.9539 13.719-16.067-7.8311-4.6152-20.405 7.0322-13.719 16.067z"
     fill="#ffd5d5"
     stroke="#000"
     stroke-linecap="round"
     stroke-linejoin="round"
     stroke-width=".825"
     id="path59" /><path
     d="m111.22 72.628c0.585-1.7419 2.6887-6.8505 3.2737-8.5923 0.36273-1.0801 1.1022-4.4374 1.4649-5.5175-0.36273 1.0801-1.7996 4.2032-2.1624 5.2832-0.585 1.7419-1.9913 7.0847-2.5763 8.8266z"
     fill="#fff"
     id="path60" /><path
     d="m126.25 55.351c-16.547 8.4259-22.522-0.53462-10.352-10.825 3.1239-2.7714 12.669 9.3536 10.352 10.825z"
     fill="#ffd5d5"
     stroke="#000"
     stroke-linecap="round"
     stroke-linejoin="round"
     stroke-width=".825"
     id="path61" /><g
     fill="#ffffff"
     id="g94"
     style="display:none;fill:#ffe6d5;fill-opacity:1"><path
       d="m 94.959,68.167 c -0.16994,1.9589 -0.69255,5.4934 -1.2251,8.9477 -0.53003,3.438 -1.0352,6.5997 -1.1843,8.2095 -0.23587,2.5477 -0.47752,7.4236 -0.62257,12.153 -0.14537,4.7401 -0.17012,9.4436 -0.2573,11.838 0.09553,-2.6239 0.503,-6.8769 1.0855,-11.776 0.55876,-4.6997 1.2156,-9.5484 1.4483,-12.062 0.14374,-1.5526 0.24566,-4.8629 0.35726,-8.2857 0.11075,-3.3966 0.23676,-7.1639 0.39818,-9.0246 z"
       id="path62"
       style="fill:#ffe6d5;fill-opacity:1" /><path
       d="m 110.05,74.357 c -0.50894,-0.63401 -1.6725,-2.8277 -2.1814,-3.4617 -2.3688,-2.9509 -9.8384,-11.512 -12.207,-14.463 2.3688,2.9509 9.1119,12.095 11.481,15.046 0.50894,0.63401 2.3991,2.2444 2.908,2.8784 z"
       id="path63"
       style="fill:#ffe6d5;fill-opacity:1" /><path
       d="m 127.44,92.912 c -1.6264,-1.7849 -6.3055,-7.3219 -7.932,-9.1068 -1.5128,-1.6602 -6.2516,-6.4583 -7.7645,-8.1184 1.5128,1.6602 5.8511,6.8232 7.364,8.4834 1.6264,1.7849 6.7061,6.9569 8.3325,8.7418 z"
       id="path64"
       style="fill:#ffe6d5;fill-opacity:1" /><path
       d="m 123.73,72.12 c -0.78154,0.15615 -3.1719,0.39582 -3.9534,0.55196 -1.41,0.2817 -5.5941,1.3556 -7.004,1.6372 1.4099,-0.2817 5.6855,-0.89802 7.0954,-1.1797 0.78154,-0.15615 3.0804,-0.85335 3.862,-1.0095 z"
       id="path65"
       style="fill:#ffe6d5;fill-opacity:1" /><path
       d="m 128.07,95.51 c -0.90937,0.5417 -3.8059,1.884 -4.7153,2.4257 -2.6722,1.5918 -10.52,6.6499 -13.193,8.2417 2.6722,-1.5918 10.857,-6.0843 13.529,-7.6761 0.90937,-0.54169 3.469,-2.4496 4.3784,-2.9912 z"
       id="path66"
       style="fill:#ffe6d5;fill-opacity:1" /><path
       d="m 107.35,105.24 c -0.27031,-0.64188 -0.71252,-2.7228 -0.98283,-3.3647 -0.97312,-2.3108 -4.2612,-9.088 -5.2343,-11.399 0.97312,2.3108 3.5238,9.3985 4.4969,11.709 0.2703,0.64187 1.4499,2.4122 1.7202,3.0541 z"
       id="path67"
       style="fill:#ffe6d5;fill-opacity:1" /><path
       d="m 96.881,150.71 c -0.3461,-0.61139 -1.0444,-2.638 -1.3905,-3.2494 -1.5479,-2.7344 -6.5316,-10.745 -8.0795,-13.479 1.5479,2.7344 5.8516,11.13 7.3995,13.864 0.3461,0.61138 1.7244,2.2531 2.0705,2.8645 z"
       id="path68"
       style="fill:#ffe6d5;fill-opacity:1" /><path
       d="m 85.921,132.81 c -0.26382,-0.19913 -0.78964,-1.1485 -1.0535,-1.3476 -2.4171,-1.8244 -9.9339,-6.9457 -12.351,-8.7701 2.4171,1.8244 9.4026,7.6496 11.82,9.474 0.26382,0.19913 1.3209,0.44459 1.5847,0.64372 z"
       id="path69"
       style="fill:#ffe6d5;fill-opacity:1" /><path
       d="m 75.634,155.92 c -0.40989,-0.65172 -1.3609,-2.7822 -1.7708,-3.4339 -2.1341,-3.3931 -8.815,-13.397 -10.949,-16.79 2.1341,3.3931 8.2576,13.748 10.392,17.141 0.40989,0.65173 1.9183,2.4316 2.3282,3.0833 z"
       id="path70"
       style="fill:#ffe6d5;fill-opacity:1" /><path
       d="m 61.055,133.12 c -0.22159,-1.0384 -0.35751,-4.2663 -0.5791,-5.3046 -0.58986,-2.764 -2.8883,-10.943 -3.4782,-13.707 0.58986,2.764 1.8306,11.169 2.4204,13.933 0.22159,1.0384 1.4152,4.0406 1.6368,5.0789 z"
       id="path71"
       style="fill:#ffe6d5;fill-opacity:1" /><path
       d="m 71.076,121.67 c -0.34215,-0.19348 -1.1859,-1.097 -1.5281,-1.2905 -2.1811,-1.2333 -8.9069,-4.6101 -11.088,-5.8435 2.1811,1.2333 8.5415,5.2564 10.723,6.4897 0.34215,0.19348 1.5513,0.45078 1.8935,0.64426 z"
       id="path72"
       style="fill:#ffe6d5;fill-opacity:1" /><path
       d="m 86.585,130.52 c 0.74166,-2.7915 3.2852,-11.082 4.0268,-13.873 0.27332,-1.0288 0.77477,-4.1996 1.0481,-5.2284 -0.27332,1.0288 -1.4118,4.0304 -1.6851,5.0592 -0.74166,2.7915 -2.6481,11.251 -3.3898,14.042 z"
       id="path73"
       style="fill:#ffe6d5;fill-opacity:1" /><path
       d="m 106.53,107.23 c -0.72725,0.18908 -2.9973,0.41669 -3.7246,0.60576 -1.9258,0.50069 -7.6149,2.3424 -9.5407,2.843 1.9258,-0.50068 7.7915,-1.6631 9.7173,-2.1638 0.72725,-0.18908 2.8207,-1.0959 3.548,-1.285 z"
       id="path74"
       style="fill:#ffe6d5;fill-opacity:1" /><path
       d="m 46.165,110.21 c -0.12622,-0.49303 -0.2032,-2.0493 -0.32941,-2.5424 -0.74236,-2.8998 -3.2711,-11.522 -4.0135,-14.422 0.74236,2.8998 2.6678,11.677 3.4101,14.576 0.12622,0.49303 0.80653,1.8949 0.93275,2.3879 z"
       id="path75"
       style="fill:#ffe6d5;fill-opacity:1" /><path
       d="m 54.38,94.726 c -0.31913,-0.07467 -1.1897,-0.66962 -1.5089,-0.74429 -2.0041,-0.46889 -8.103,-1.5046 -10.107,-1.9735 2.0041,0.46889 7.9294,2.2465 9.9335,2.7154 0.31913,0.07467 1.3633,-0.07228 1.6824,0.0024 z"
       id="path76"
       style="fill:#ffe6d5;fill-opacity:1" /><path
       d="m 56.903,112.39 c 0.89851,-3.8833 3.891,-15.464 4.7895,-19.348 1.0302,-4.4524 3.8238,-17.878 4.854,-22.331 -1.0302,4.4524 -4.4177,17.741 -5.4479,22.193 -0.89851,3.8833 -3.2971,15.602 -4.1956,19.485 z"
       id="path77"
       style="fill:#ffe6d5;fill-opacity:1" /><path
       d="m 54.379,93.302 c -0.08989,-0.25708 -0.1314,-1.1081 -0.2213,-1.3652 -0.74174,-2.1213 -3.1951,-8.4053 -3.9369,-10.527 0.74174,2.1213 2.7388,8.5649 3.4805,10.686 0.08989,0.25708 0.58775,0.94855 0.67764,1.2056 z"
       id="path78"
       style="fill:#ffe6d5;fill-opacity:1" /><path
       d="m 55.717,91.345 c 0.65656,-1.3374 2.3335,-5.4934 2.99,-6.8308 1.5092,-3.0742 6.3296,-12.153 7.8388,-15.227 -1.5092,3.0742 -5.744,12.441 -7.2532,15.515 -0.65656,1.3374 -2.9191,5.2059 -3.5756,6.5433 z"
       id="path79"
       style="fill:#ffe6d5;fill-opacity:1" /><path
       d="m 49.673,80.519 c 0.06689,-0.28339 0.48541,-1.0822 0.5523,-1.3655 0.29491,-1.2494 0.9618,-5.0492 1.2567,-6.2986 -0.29491,1.2494 -1.3975,4.9463 -1.6924,6.1958 -0.06689,0.28339 -0.04972,1.185 -0.11661,1.4684 z"
       id="path80"
       style="fill:#ffe6d5;fill-opacity:1" /><path
       d="m 67.162,66.855 c 0.07633,-0.35289 0.56498,-1.3554 0.64131,-1.7083 0.48194,-2.2282 1.6681,-8.9688 2.15,-11.197 -0.48194,2.2282 -2.1874,8.8564 -2.6694,11.085 -0.07633,0.35289 -0.04565,1.4677 -0.12198,1.8206 z"
       id="path81"
       style="fill:#ffe6d5;fill-opacity:1" /><path
       d="m 77.954,61.76 c -0.22435,-0.28154 -0.71947,-1.2679 -0.94382,-1.5495 -1.0877,-1.365 -4.5289,-5.3182 -5.6166,-6.6832 1.0877,1.365 4.173,5.6018 5.2608,6.9668 0.22435,0.28154 1.0753,0.98436 1.2997,1.2659 z"
       id="path82"
       style="fill:#ffe6d5;fill-opacity:1" /><path
       d="m 93.415,54.513 c -0.50002,0.23055 -2.0962,0.71367 -2.5963,0.94422 -2.205,1.0167 -8.7238,4.2752 -10.929,5.2919 2.205,-1.0167 8.9161,-3.8581 11.121,-4.8748 0.50002,-0.23055 1.9039,-1.1307 2.404,-1.3613 z"
       id="path83"
       style="fill:#ffe6d5;fill-opacity:1" /><path
       d="m 96.235,66.911 c 0,0 0.54401,-0.08094 0.54401,-0.08094 -0.33072,-2.2229 -1.8669,-8.8108 -2.1976,-11.034 0.33072,2.2229 0.77886,8.9726 1.1096,11.196 0,0 0.54401,-0.08094 0.54401,-0.08094 z"
       id="path84"
       style="fill:#ffe6d5;fill-opacity:1" /><path
       d="m 95.234,53.841 c -0.26034,-0.3282 -0.82227,-1.4866 -1.0826,-1.8148 -1.0111,-1.2746 -4.2636,-4.9248 -5.2747,-6.1994 1.0111,1.2746 3.8254,5.2724 4.8365,6.5471 0.26034,0.3282 1.2605,1.139 1.5208,1.4672 z"
       id="path85"
       style="fill:#ffe6d5;fill-opacity:1" /><path
       d="m 104.3,64.25 c 0.008,-0.91894 0.33576,-3.673 0.34422,-4.5919 0.0202,-2.188 -0.22123,-8.7546 -0.20107,-10.943 -0.0202,2.188 -0.38253,8.7491 -0.40269,10.937 -0.008,0.91894 0.26801,3.6785 0.25954,4.5975 z"
       id="path86"
       style="fill:#ffe6d5;fill-opacity:1" /><path
       d="m 123.02,70.419 c -0.46198,-0.91319 -1.5715,-3.7926 -2.0335,-4.7058 -0.60134,-1.1887 -2.6818,-4.6148 -3.2832,-5.8034 0.60135,1.1887 2.1289,4.8945 2.7303,6.0832 0.46199,0.91319 2.1244,3.5129 2.5864,4.4261 z"
       id="path87"
       style="fill:#ffe6d5;fill-opacity:1" /><path
       d="m 99.803,87.585 c -0.07447,-0.47083 0.10562,-1.9471 0.03115,-2.418 -0.39337,-2.4872 -1.977,-9.8849 -2.3703,-12.372 0.39337,2.4872 1.17,10.013 1.5634,12.5 0.07447,0.47083 0.70134,1.8195 0.77581,2.2903 z"
       id="path88"
       style="fill:#ffe6d5;fill-opacity:1" /><path
       d="m 119.09,128.82 c 0.0917,0.45196 -0.002,1.2276 -0.23614,1.957 -0.22559,0.70321 -0.5604,1.271 -0.63838,1.5701 -0.0324,0.1243 -0.0692,0.26217 -0.11277,0.41165 -0.25686,0.88137 -0.69023,1.95 -1.6529,3.1979 -1.8026,2.3368 -4.9505,4.4448 -6.3172,5.2236 1.2869,-0.73329 4.8772,-2.3333 7.1544,-4.4553 1.2612,-1.1753 2.0093,-2.3594 2.4006,-3.4438 0.0658,-0.18243 0.11812,-0.35314 0.15871,-0.50883 0.10485,-0.4021 0.0502,-1.1621 -0.14998,-1.9775 -0.19401,-0.79031 -0.52244,-1.5612 -0.60636,-1.9748 z"
       id="path89"
       style="fill:#ffe6d5;fill-opacity:1" /><path
       d="m 121.78,49.328 c 0.46349,0.52601 1.2731,1.3174 1.8965,1.9983 0.50678,0.55359 0.89363,1.034 1.1119,1.479 0.13238,0.26985 0.19834,0.5175 0.20712,0.74524 0.005,0.13031 -0.009,0.2439 -0.0343,0.33506 -0.0346,0.12642 -0.0929,0.26478 -0.18439,0.40327 -0.12862,0.19471 -0.30779,0.36735 -0.5415,0.51256 -0.19631,0.12197 -0.42419,0.22059 -0.68513,0.30279 -0.46545,0.14663 -1.0458,0.2439 -1.7529,0.32566 -0.67622,0.07819 -1.4778,0.14285 -2.3482,0.21737 -2.4704,0.2115 -4.5824,0.45112 -6.4804,0.84963 1.5886,-0.33354 4.2654,-0.8711 6.4142,-1.3088 0.86295,-0.17578 1.6268,-0.3433 2.2668,-0.52061 0.67307,-0.18645 1.1524,-0.36848 1.486,-0.55695 0.18222,-0.10298 0.3028,-0.19799 0.382,-0.27997 0.091,-0.09421 0.12283,-0.16642 0.1381,-0.21102 0.01,-0.0281 0.0186,-0.06577 0.0239,-0.08508 0.005,-0.01974 0.0174,-0.03837 0.0349,-0.0759 0.0284,-0.06077 0.0693,-0.16994 0.0681,-0.36465 -0.002,-0.34432 -0.13511,-0.84415 -0.47358,-1.5121 -0.40783,-0.80486 -1.0468,-1.7063 -1.5292,-2.2538 z"
       id="path90"
       style="fill:#ffe6d5;fill-opacity:1" /><path
       d="m 56.9,54.221 c 0.63412,0.89744 1.113,2.345 1.1101,3.7834 -0.0018,0.92078 -0.1783,1.5873 -0.22866,2.0176 -0.03412,0.2915 -0.06478,0.66644 -0.14457,1.1447 -0.38799,2.3255 -1.7689,4.8451 -3.0216,6.2033 1.2642,-1.3706 3.4234,-3.1376 4.4222,-5.8175 0.19682,-0.5281 0.30374,-0.99155 0.34489,-1.3431 0.06076,-0.51908 -0.01695,-1.4007 -0.35484,-2.3852 -0.56323,-1.6411 -1.4553,-2.6518 -2.1275,-3.6031 z"
       id="path91"
       style="fill:#ffe6d5;fill-opacity:1" /><path
       d="m 45.102,135.98 c 0.47768,0.4232 1.1031,0.84871 1.7238,1.5364 0.49233,0.5455 0.82376,1.102 0.99964,1.67 0.1129,0.36457 0.14425,0.68409 0.12448,0.89807 -0.02365,0.25595 -0.08724,0.55968 -0.21015,0.89423 -0.18007,0.49016 -0.46512,0.98787 -0.86296,1.4914 -0.68047,0.86125 -1.5738,1.5931 -2.4041,2.2255 -0.43289,0.32971 -0.82768,0.61802 -1.1441,0.86454 -0.4325,0.33696 -0.69522,0.57643 -0.84226,0.7722 0.20316,-0.2705 0.29213,-0.41096 0.69973,-0.91691 0.25397,-0.31525 0.57086,-0.69203 0.90997,-1.1092 0.67244,-0.82718 1.2936,-1.6567 1.7087,-2.5202 0.23473,-0.48831 0.36004,-0.89852 0.42992,-1.2528 0.04725,-0.23959 0.06645,-0.43994 0.08121,-0.59967 0.01241,-0.13433 0.06708,-0.32638 0.10645,-0.5814 0.06046,-0.39163 0.07351,-0.8943 -0.12949,-1.5186 -0.2446,-0.75227 -0.74595,-1.4594 -1.1908,-1.8535 z"
       id="path92"
       style="fill:#ffe6d5;fill-opacity:1" /><path
       d="m 133.29,128.44 c 2.8683,-0.51453 9.7394,-1.6472 18.751,-2.5667 9.6724,-0.98688 19.986,-1.5434 30.106,-1.3284 6.4304,0.1366 11.456,0.55592 15.143,0.95603 2.9352,0.31857 7.6709,0.88105 12.911,1.9992 5.0491,1.0774 9.8082,2.5058 14.135,4.3617 4.2946,1.842 7.3018,3.7406 9.2372,5.1547 -1.9437,-1.4202 -4.892,-3.3658 -9.1688,-5.3095 -4.3,-1.9543 -9.0431,-3.499 -14.097,-4.6839 -5.2341,-1.2272 -10.005,-1.8762 -12.945,-2.1952 -3.6878,-0.40024 -8.7732,-0.78355 -15.207,-0.85618 -10.139,-0.11447 -20.485,0.57492 -30.138,1.6874 -8.9829,1.0352 -15.882,2.2704 -18.728,2.7809 z"
       id="path93"
       style="fill:#ffe6d5;fill-opacity:1" /><path
       d="m 136.19,81.534 c 2.7484,0.94805 14.875,5.169 20.643,7.2574 8.5368,3.0911 15.009,5.6725 21.647,8.6507 2.0818,0.93394 3.8431,1.7559 5.2798,2.4294 4.1186,1.9308 10.797,5.0272 20.078,10.279 9.3564,5.2946 18.468,11.171 24.774,15.494 -6.5866,-4.5158 -14.958,-10.267 -24.455,-16.038 -9.0058,-5.4728 -15.85,-8.9966 -19.862,-10.878 -1.4331,-0.67183 -3.2408,-1.4847 -5.3411,-2.3746 -6.6692,-2.8258 -13.397,-5.2279 -21.962,-8.0275 -7.9387,-2.595 -16.108,-5.1731 -20.803,-6.7926 z"
       id="path94"
       style="fill:#ffe6d5;fill-opacity:1" /></g><path
     d="m 35.448,155.18 c 1.5631,2.8312 4.6739,6.7653 10.134,10.674 5.2067,3.7267 10.745,6.1889 14.914,7.951 0.40512,0.17125 0.62996,0.26572 1.0351,0.43697 7.6446,3.2341 19.973,7.4153 39.051,10.067 17.298,2.4046 36.118,2.9749 54.338,2.0076 17.98,-0.95456 32.088,-3.2233 40.768,-5.0041 -8.733,1.7916 -22.681,4.3034 -40.727,5.636 -18.224,1.3457 -37.132,1.213 -54.611,-0.81755 -19.233,-2.2344 -31.998,-6.2097 -39.822,-9.5195 -0.32716,-0.13841 -0.68133,-0.2933 -1.0581,-0.46377 -4.1812,-1.8919 -9.7678,-5.0403 -14.658,-9.3238 -5.2515,-4.5999 -7.7732,-8.7622 -9.3641,-11.644 z"
     fill="#ffd5d5"
     id="path95"
     style="display:inline" /><g
     inkscape:groupmode="layer"
     id="layer2"
     inkscape:label="Layer 2"
     style="display:inline"><path
       fill="#000000"
       d="M 88.228085,62.792444 80.980863,90.782488 110.94893,59.303935 88.162064,95.579091 113.29178,79.531838 90.048658,105.45867 l 21.233132,-5.36597 -25.242646,17.19171 13.267099,3.50357 -21.896763,6.51298 3.756263,7.73957 -14.267953,-2.71395 -4.274601,6.0023 -4.783813,-7.56071 -8.275781,-1.16284 3.548082,-6.48691 -6.975547,-11.47593 8.083446,0.16992 -0.798795,-21.667617 7.384822,10.284967 8.309548,-28.497143 1.665887,20.658219 17.446901,-29.798366 z m -10.67784,37.246396 c -2.344781,0.3807 -5.717043,2.92588 -8.590015,6.71169 -3.830585,5.04716 -5.326411,10.39212 -3.338565,11.94141 1.988003,1.54941 6.706566,-1.28418 10.537112,-6.33177 3.830561,-5.04744 5.325984,-10.39696 3.338136,-11.94625 -0.49688,-0.38723 -1.164827,-0.50192 -1.946499,-0.37481 z m -13.399956,7.90803 c -5.405592,1.40079 -9.252986,6.78484 -8.748328,12.48207 0.531371,5.99879 5.68095,10.00768 11.538706,8.988 5.751083,-1.0011 9.986491,-6.46657 9.635837,-12.3426 -0.880841,3.65537 -3.877533,6.70281 -7.63985,7.35772 -4.763161,0.82913 -9.003265,-2.47961 -9.435317,-7.35716 -0.326988,-3.69146 1.619735,-7.25259 4.649383,-9.1281 z"
       id="path1"
       style="fill:url(#radialGradient8);stroke-width:0.146407" /></g><g
     inkscape:groupmode="layer"
     id="layer1"
     inkscape:label="Layer 1"
     style="display:inline;opacity:1"><path
       style="fill:none;fill-opacity:1;stroke:#000000;stroke-width:0.280229;stroke-dasharray:none;stroke-opacity:1"
       d="m 77.730922,157.21147 c -0.03359,-0.0423 -3.463782,-5.35951 -7.622673,-11.8161 -4.337285,-6.73354 -7.547991,-11.7749 -7.52967,-11.82287 0.06751,-0.17671 9.892029,-12.28248 9.95487,-12.26638 0.03649,0.009 3.33772,2.47755 7.336058,5.48488 6.12256,4.60506 7.265849,5.48744 7.24529,5.59184 -0.03442,0.17473 -9.227672,24.80094 -9.279937,24.85838 -0.02359,0.026 -0.07035,0.0126 -0.103938,-0.0297 z"
       id="path164" /><path
       style="fill:none;fill-opacity:1;stroke:#000000;stroke-width:0.283808;stroke-dasharray:none;stroke-opacity:1"
       d="m 94.479477,105.50774 c 0.957553,-2.55062 2.818003,-7.506835 4.134335,-11.013796 1.316333,-3.506962 2.402958,-6.376145 2.414728,-6.375962 0.0118,1.81e-4 1.82363,3.910302 4.02639,8.689158 3.32417,7.21176 3.99355,8.69423 3.93758,8.72056 -0.0371,0.0174 -3.6783,1.05423 -8.09158,2.3039 -4.413285,1.24968 -8.055272,2.2815 -8.093306,2.2929 -0.04888,0.0147 0.441502,-1.33946 1.671853,-4.61676 z"
       id="path163" /><path
       style="display:inline;fill:none;fill-opacity:1;stroke:#000000;stroke-width:0.285677;stroke-dasharray:none;stroke-opacity:1"
       d="m 87.233531,132.1096 c 0.06288,-0.29751 5.541892,-22.00453 5.558223,-22.02083 0.02309,-0.0231 16.270706,-4.6345 16.281236,-4.62098 0.004,0.005 -2.6211,3.21302 -5.83435,7.12762 -3.21325,3.9146 -8.109612,9.9054 -10.880803,13.3129 -2.77119,3.4075 -5.063926,6.22563 -5.094969,6.2625 -0.04836,0.0575 -0.05256,0.0487 -0.02934,-0.0613 z"
       id="path162" /><path
       style="display:inline;fill:none;fill-opacity:1;stroke:#000000;stroke-width:0.277;stroke-dasharray:none;stroke-opacity:1"
       d="m 65.105364,117.4141 c -4.00542,-2.10268 -7.34885,-3.86132 -7.429842,-3.90809 -0.143671,-0.0497 0.22969,-1.76854 4.960062,-22.894695 2.809026,-12.545297 5.122491,-22.822119 5.14103,-22.837382 0.01855,-0.01526 2.762958,-1.324401 6.045319,-2.989283 l 5.96793,-3.027056 8.722079,3.105378 c 4.797144,1.707956 8.738142,3.120803 8.757772,3.13966 0.02773,0.02664 -4.481897,42.004528 -4.518118,42.056898 0.08895,0.17888 -4.328308,2.44078 -9.684127,5.38935 -5.35582,2.94856 -10.034491,5.43293 -10.263375,5.55902 l -0.416149,0.22924 z"
       id="path160"
       sodipodi:nodetypes="scssscsscsscs" /><path
       style="display:inline;fill:none;fill-opacity:1;stroke:#000000;stroke-width:0.283;stroke-dasharray:none;stroke-opacity:1"
       d="M 97.983847,71.425072 C 96.31895,62.316517 94.963522,54.857265 94.971784,54.848961 c 0.0083,-0.0083 3.678518,4.221249 8.156116,9.399011 4.47763,5.177764 8.19154,9.471908 8.25318,9.542542 l 0.11205,0.128429 -5.21012,7.023132 c -2.86555,3.862723 -5.23185,7.043454 -5.24891,7.049195 -0.017,0.0058 -1.385357,-7.457643 -3.050253,-16.566198 z"
       id="path161"
       sodipodi:nodetypes="scsscscs" /><path
       style="fill:none;fill-opacity:1;stroke:#000000;stroke-width:0.283212;stroke-dasharray:none"
       d="M 67.721944,67.843686 57.554911,113.46084 47.156453,111.26554 Z"
       id="path96" /><path
       style="fill:none;fill-opacity:1;stroke:#000000;stroke-width:0.283;stroke-dasharray:none"
       d="m 50.567288,80.35014 4.685447,13.565939 -0.123414,0.0914 -13.100662,-2.702317 0.176777,-0.618718 z"
       id="path97"
       sodipodi:nodetypes="cccccc" /></g></svg>
